<svg width="24" height="22" viewBox="0 0 24 22" fill="none" xmlns="http://www.w3.org/2000/svg">
<g filter="url(#filter0_d_1_1730)">
<path d="M12.0002 0C9.67571 0.00823729 7.42667 0.826025 5.63977 2.31277C3.85286 3.79952 2.63972 5.86234 2.20891 8.1466C1.77809 10.4309 2.15652 12.7939 3.27913 14.8293C4.40174 16.8648 6.1984 18.4456 8.36023 19.3C8.26023 18.51 8.19023 17.3 8.39023 16.43L9.56023 11.46C9.56023 11.46 9.26023 10.86 9.26023 9.98C9.26023 8.59 10.0702 7.56 11.0802 7.56C11.9302 7.56 12.3502 8.2 12.3502 8.96C12.3502 9.82 11.8002 11.1 11.5102 12.29C11.2702 13.29 12.0102 14.1 13.0002 14.1C14.7802 14.1 16.1402 12.23 16.1402 9.53C16.1402 7.13 14.4202 5.47 11.9602 5.47C11.3758 5.44433 10.7923 5.53734 10.2448 5.74342C9.69733 5.94951 9.19729 6.26438 8.77487 6.66904C8.35245 7.07371 8.01641 7.55977 7.78702 8.09789C7.55763 8.63601 7.43966 9.21503 7.44023 9.8C7.44023 10.66 7.77023 11.58 8.18023 12.08C8.26023 12.18 8.27023 12.27 8.24023 12.37L7.96023 13.5C7.92023 13.68 7.81023 13.73 7.63023 13.64C6.37023 13.05 5.59023 11.24 5.59023 9.76C5.59023 6.61 7.89023 3.72 12.2102 3.72C15.6702 3.72 18.3802 6.18 18.3802 9.49C18.3802 12.94 16.2002 15.71 13.1802 15.71C12.1802 15.71 11.2202 15.18 10.9002 14.56L10.2702 16.93C9.97509 17.8577 9.55811 18.7421 9.03023 19.56C10.4041 19.9816 11.8526 20.1021 13.2772 19.9133C14.7018 19.7245 16.069 19.2309 17.2856 18.4661C18.5023 17.7014 19.5398 16.6833 20.3275 15.4814C21.1152 14.2795 21.6346 12.9219 21.8504 11.5011C22.0661 10.0804 21.9731 8.62979 21.5776 7.24822C21.1822 5.86664 20.4936 4.58652 19.5588 3.49506C18.6241 2.40359 17.465 1.52642 16.1607 0.923296C14.8563 0.320168 13.4373 0.00525257 12.0002 0Z" fill="white"/>
</g>
<defs>
<filter id="filter0_d_1_1730" x="-1.96436" y="0" width="27.9282" height="28" filterUnits="userSpaceOnUse" color-interpolation-filters="sRGB">
<feFlood flood-opacity="0" result="BackgroundImageFix"/>
<feColorMatrix in="SourceAlpha" type="matrix" values="0 0 0 0 0 0 0 0 0 0 0 0 0 0 0 0 0 0 127 0" result="hardAlpha"/>
<feOffset dy="4"/>
<feGaussianBlur stdDeviation="2"/>
<feComposite in2="hardAlpha" operator="out"/>
<feColorMatrix type="matrix" values="0 0 0 0 0 0 0 0 0 0 0 0 0 0 0 0 0 0 0.25 0"/>
<feBlend mode="normal" in2="BackgroundImageFix" result="effect1_dropShadow_1_1730"/>
<feBlend mode="normal" in="SourceGraphic" in2="effect1_dropShadow_1_1730" result="shape"/>
</filter>
</defs>
</svg>
