<svg xmlns="http://www.w3.org/2000/svg" xmlns:xlink="http://www.w3.org/1999/xlink" x="0px" y="0px"
	 width="10px" height="12px" viewBox="0 0 10 12" enable-background="new 0 0 10 12" xml:space="preserve">
<path fill="#999999" d="M5.5,0.2c0.4,0.3,0.5,1,0.1,1.4L2.4,6l3.2,4.4c0.3,0.4,0.3,1.1-0.1,1.4c-0.4,0.3-1,0.3-1.3-0.2L0,6l4.2-5.6
	C4.5-0.1,5.1-0.1,5.5,0.2z M9.7,0.2c0.4,0.3,0.5,1,0.1,1.4L6.5,6l3.2,4.4c0.3,0.4,0.3,1.1-0.1,1.4c-0.4,0.3-1,0.3-1.3-0.2L4.2,6
	l4.2-5.6C8.7-0.1,9.3-0.1,9.7,0.2z"/>
</svg>
